<?xml version="1.0" encoding="UTF-8"?>
<svg version="1.1" xmlns="http://www.w3.org/2000/svg" width="2000" height="2000">
<path d="M0 0 C660 0 1320 0 2000 0 C2000 660 2000 1320 2000 2000 C1340 2000 680 2000 0 2000 C0 1340 0 680 0 0 Z " fill="#000000" transform="translate(0,0)"/>
<path d="M0 0 C0.70125 0.40089844 1.4025 0.80179688 2.125 1.21484375 C10.02058479 6.37389063 15.07421557 14.86963116 17 24 C16.90348439 25.96773657 16.80523006 27.93688074 16.61425781 29.89770508 C16.02955325 36.60997451 16.02955325 36.60997451 19.01953125 42.4296875 C21.75558485 44.36594656 21.75558485 44.36594656 24.78515625 46.08984375 C52.26981713 62.42034092 62.4033846 96.2549743 71.5625 124.75 C72.29813609 127.01324589 73.03446083 129.27626806 73.77148438 131.5390625 C75.87580736 138.0172112 77.94706309 144.50539913 80 151 C80.31378601 151.9887915 80.62757202 152.97758301 80.9508667 153.99633789 C81.82013442 156.7496493 82.67637951 159.50660908 83.52734375 162.265625 C83.78109268 163.0682074 84.03484161 163.87078979 84.29627991 164.69769287 C85.57454664 168.90540477 86.4005222 172.54895365 86 177 C80.60078071 184.95220477 67.90002953 190.67174986 59.38671875 194.77734375 C51.41320063 198.68593106 47.34837433 202.31423077 43 210 C42.41165375 211.00068512 41.8233075 212.00137024 41.21713257 213.03237915 C36.32714833 221.93900418 34.82383113 229.83426546 34.4765625 239.9609375 C34.40209507 241.44648362 34.3247539 242.93188813 34.24472046 244.41714478 C34.0435787 248.28292972 33.8790438 252.14936295 33.72338867 256.01721191 C33.5593309 259.94869563 33.36305032 263.87854689 33.16796875 267.80859375 C32.94852354 272.2336539 32.73142986 276.65852158 32.54360962 281.08505249 C32.26621847 287.44140173 31.93760564 293.70464786 31 300 C5.29720411 308.73725405 5.29720411 308.73725405 -0.5 309.19921875 C-8.81800367 309.99202847 -12.60598901 315.36835391 -17.62548828 321.40283203 C-20.47777208 324.71715541 -23.67832953 327.69834061 -26.80859375 330.74609375 C-29.04486013 332.93354463 -29.04486013 332.93354463 -30.7512207 335.44799805 C-33.36661087 338.41604424 -35.55550864 339.51678237 -39.171875 341.0859375 C-40.06505936 341.48032265 -40.06505936 341.48032265 -40.97628784 341.88267517 C-42.89546587 342.72648157 -44.82224728 343.55099723 -46.75 344.375 C-48.06870556 344.94959835 -49.38690177 345.52536705 -50.70458984 346.10229492 C-53.29136089 347.23276829 -55.88106591 348.35603018 -58.47363281 349.47314453 C-61.44864403 350.76127248 -64.41152882 352.07061602 -67.3671875 353.40234375 C-68.10614258 353.73379395 -68.84509766 354.06524414 -69.60644531 354.40673828 C-70.27256836 354.70563965 -70.93869141 355.00454102 -71.625 355.3125 C-77.62469734 358 -77.62469734 358 -81 358 C-81.08765625 358.61101562 -81.1753125 359.22203125 -81.265625 359.8515625 C-82.21055496 362.61598525 -83.23930095 362.96863098 -85.75 364.375 C-94.54437784 370.70820614 -95.90334868 384.93931547 -98.12573242 394.98291016 C-99.55060007 401.15590171 -101.41376276 406.41376276 -106 411 C-109.125 411.125 -109.125 411.125 -112 411 C-113.36214124 407.09090073 -114.45846654 403.24806439 -115.296875 399.1953125 C-115.53075928 398.06931641 -115.76464355 396.94332031 -116.00561523 395.78320312 C-116.25126221 394.57599609 -116.49690918 393.36878906 -116.75 392.125 C-117.006604 390.86880859 -117.26320801 389.61261719 -117.52758789 388.31835938 C-118.36196587 384.21427165 -119.18205935 380.10739033 -120 376 C-120.14451599 375.27695679 -120.28903198 374.55391357 -120.43792725 373.80895996 C-121.31491914 369.41613672 -122.17905273 365.02107383 -123.0267334 360.62249756 C-123.29927681 359.21422161 -123.57488328 357.80653481 -123.8536377 356.3994751 C-124.24373279 354.42437627 -124.62019044 352.4465989 -124.99609375 350.46875 C-125.21450928 349.33888672 -125.4329248 348.20902344 -125.65795898 347.04492188 C-125.99426116 344.05108836 -125.77636312 341.89123687 -125 339 C-124.25540527 338.88108398 -123.51081055 338.76216797 -122.74365234 338.63964844 C-107.83925786 336.1367611 -95.91916493 333.95887098 -85.48095703 322.58886719 C-83.44678021 320.40646977 -81.275029 318.39593317 -79.07592773 316.3815918 C-77.60487119 315.03359808 -76.16065816 313.6564722 -74.71875 312.27734375 C-72 310 -72 310 -69.078125 308.875 C-61.42914641 304.2157237 -56.43222971 292.3891694 -54 284 C-54.6520754 279.81478403 -55.8240191 277.85483414 -58.296875 274.4765625 C-60.70711444 270.97176479 -60.36069507 268.72425978 -59.6328125 264.66796875 C-59.42398438 263.78753906 -59.21515625 262.90710937 -59 262 C-58.74992188 260.84113281 -58.49984375 259.68226563 -58.2421875 258.48828125 C-57.53526131 255.31397674 -56.78637923 252.15540846 -56 249 C-57.01578125 249.83402344 -58.0315625 250.66804688 -59.078125 251.52734375 C-65.51468069 256.79461537 -71.95235348 262.03333237 -78.625 267 C-79.57632813 267.71027344 -80.52765625 268.42054688 -81.5078125 269.15234375 C-82.97356445 270.23902192 -84.44512282 271.31807359 -85.9296875 272.37890625 C-92.19537686 277.10155271 -93.80806238 283.13755856 -95.5 290.5 C-98.07020063 299.9073359 -103.90827986 306.56788348 -110 314 C-111.03615749 315.29503547 -112.0700543 316.59188329 -113.1015625 317.890625 C-115.09242007 320.39423075 -117.09287996 322.88958414 -119.1015625 325.37890625 C-122.75853023 329.92623417 -126.30316758 334.55714953 -129.84375 339.1953125 C-131.86432008 341.82351779 -133.91989259 344.41877581 -136 347 C-134.93197352 350.30117277 -133.64783013 352.49600714 -131.3125 355 C-129 358 -129 358 -129.08203125 360.41015625 C-130.2427539 363.68487591 -131.80998927 365.10309749 -134.375 367.4375 C-138.4651838 371.35871609 -142.04470535 375.38766825 -145.5 379.875 C-145.95648926 380.46152344 -146.41297852 381.04804687 -146.88330078 381.65234375 C-148.72428892 384.02462377 -150.55593735 386.40173998 -152.34570312 388.81298828 C-153.62714215 390.53745795 -154.93583118 392.23791614 -156.25 393.9375 C-156.99765625 394.93652344 -157.7453125 395.93554688 -158.515625 396.96484375 C-161 399 -161 399 -164.21484375 399.03125 C-168.71164516 397.80611525 -172.98843836 396.29282948 -177.3125 394.5625 C-178.12267578 394.24990234 -178.93285156 393.93730469 -179.76757812 393.61523438 C-185.73494377 391.26505623 -185.73494377 391.26505623 -188 389 C-187.89086684 385.94427138 -186.99711333 384.99721007 -184.78515625 382.859375 C-183.88667969 382.16328125 -182.98820312 381.4671875 -182.0625 380.75 C-180.71865234 379.69039062 -180.71865234 379.69039062 -179.34765625 378.609375 C-177 377 -177 377 -175 377 C-174.79375 375.824375 -174.5875 374.64875 -174.375 373.4375 C-173.43345498 369.13043237 -171.9205232 365.29966091 -170.1875 361.25 C-166.94192238 353.53164154 -165.11554992 345.66272953 -163.2734375 337.515625 C-161.60437692 330.15717696 -159.61227289 322.8974824 -157.55078125 315.640625 C-156.48736075 311.87845634 -155.56547266 308.11589524 -154.73046875 304.296875 C-151.485289 290.38512353 -145.50911652 279.84322022 -137.49804688 268.25366211 C-131.35607529 259.33100099 -126.12494364 250.20347352 -121.3125 240.5 C-120.98677002 239.85303162 -120.66104004 239.20606323 -120.32543945 238.53948975 C-116.19569883 230.66696575 -116.19569883 230.66696575 -115 222 C-113.3046875 219.30078125 -113.3046875 219.30078125 -110.875 216.3125 C-109.95541155 215.16301444 -109.03616005 214.01325926 -108.1171875 212.86328125 C-107.61670898 212.24533691 -107.11623047 211.62739258 -106.60058594 210.99072266 C-103.68542076 207.36499708 -100.84986162 203.67710344 -98 200 C-96.79188418 198.44774736 -95.58355385 196.89566163 -94.375 195.34375 C-90.77500362 190.71518322 -87.20174306 186.06662875 -83.6328125 181.4140625 C-81.01453889 178.00969267 -78.36882042 174.62699017 -75.72314453 171.24389648 C-73.90744665 168.91658915 -72.10119596 166.5822277 -70.296875 164.24609375 C-68.33855092 161.71070338 -66.35821464 159.20083578 -64.328125 156.72265625 C-59.24608114 150.35175653 -59.24608114 150.35175653 -58.2578125 142.53515625 C-59.6581139 137.75202145 -61.99564812 133.39780703 -64.37109375 129.0390625 C-66 126 -66 126 -67 123 C-67.85231201 123.18175781 -68.70462402 123.36351562 -69.58276367 123.55078125 C-72.75949766 124.22571554 -75.93714755 124.89610651 -79.11547852 125.56347656 C-80.48825597 125.85268666 -81.86065902 126.14368011 -83.23266602 126.43652344 C-85.21013074 126.85826782 -87.1888739 127.27348163 -89.16796875 127.6875 C-90.35672607 127.93886719 -91.5454834 128.19023438 -92.77026367 128.44921875 C-95.60193094 128.93211552 -98.13857111 129.11323049 -101 129 C-100.67 130.0725 -100.34 131.145 -100 132.25 C-97.40851122 142.89763869 -98.70874076 152.78865312 -104.3203125 162.21875 C-111.32932037 172.17690326 -121.23747235 178.86332596 -133 182 C-148.83122862 184.6385381 -162.84136489 183.56598734 -176.61328125 174.76171875 C-183.51985157 169.66374295 -188.85013139 164.02971688 -192 156 C-192.53173828 154.88625 -192.53173828 154.88625 -193.07421875 153.75 C-194.25632392 150.23859899 -194.38361609 146.91614442 -194.375 143.25 C-194.37338867 142.5398877 -194.37177734 141.82977539 -194.37011719 141.09814453 C-194.23325625 135.22520015 -193.08040325 130.94569934 -190 126 C-189.401875 124.96875 -188.80375 123.9375 -188.1875 122.875 C-180.44102556 112.6939193 -170.07476069 105.75126961 -157.4375 103.3125 C-149.54211254 102.5464129 -141.20303951 102.3332194 -133.375 103.6875 C-129.23008473 104.07128845 -128.48187943 103.15120184 -125 101 C-122.20071387 99.7157072 -119.34528459 98.57491639 -116.48828125 97.42578125 C-115.67884567 97.09708542 -114.8694101 96.76838959 -114.03544617 96.42973328 C-112.33263955 95.73945457 -110.62899296 95.05124473 -108.92456055 94.36499023 C-106.30865653 93.31095133 -103.69618595 92.24872346 -101.08398438 91.18554688 C-99.42728134 90.51513549 -97.77038687 89.84519692 -96.11328125 89.17578125 C-95.32995926 88.85708572 -94.54663727 88.5383902 -93.73957825 88.21003723 C-88.23039505 86 -88.23039505 86 -86 86 C-85.87625 84.80375 -85.7525 83.6075 -85.625 82.375 C-85.30302972 79.74404285 -84.87820453 77.64983803 -84 75.125 C-83.07337776 72.22930551 -82.81336442 70.00486099 -82.625 67 C-82.20267001 62.29102065 -81.11036185 59.68332324 -78 56 C-77.5153125 55.42507813 -77.030625 54.85015625 -76.53125 54.2578125 C-72.10527294 49.39341318 -67.09919608 46.41960795 -61 44 C-60.34 44 -59.68 44 -59 44 C-59.15855469 43.28070312 -59.31710937 42.56140625 -59.48046875 41.8203125 C-61.28305923 32.0348213 -59.76036923 23.40062848 -54.71484375 14.8125 C-42.73231833 -2.27678417 -19.14860933 -11.56895147 0 0 Z " fill="#F9821A" transform="translate(459,796)"/>
<path d="M0 0 C1.16917969 -0.020625 2.33835937 -0.04125 3.54296875 -0.0625 C16.94497055 -0.12199834 27.20616884 2.90129234 38.1875 10.4375 C49.76419966 22.01419966 52.09204638 37.66858064 52.28125 53.3046875 C52.29965942 54.47903351 52.31806885 55.65337952 52.33703613 56.86331177 C52.39562827 60.61715814 52.44842417 64.37105111 52.5 68.125 C52.71851046 88.55797683 52.71851046 88.55797683 53.79272461 108.95751953 C54.15575 114.72402173 54.06018618 120.47212685 54 126.25 C45.42 126.25 36.84 126.25 28 126.25 C25.75 115 25.75 115 25.5859375 111.1171875 C25.54726563 110.2921875 25.50859375 109.4671875 25.46875 108.6171875 C25.4378125 107.79476563 25.406875 106.97234375 25.375 106.125 C25.33632813 105.26390625 25.29765625 104.4028125 25.2578125 103.515625 C25.1650015 101.42737749 25.0814901 99.33871992 25 97.25 C23.03814181 97.57147852 23.03814181 97.57147852 21 98.25 C19.51179955 100.67885222 19.51179955 100.67885222 18.3125 103.6875 C12.43690937 116.07189027 3.15283325 123.97164533 -9.67797852 128.64135742 C-14.21230276 129.82988338 -18.7777616 129.72089226 -23.4375 129.6875 C-24.42298828 129.70748047 -25.40847656 129.72746094 -26.42382812 129.74804688 C-36.3381912 129.74147672 -44.89204316 126.28035906 -52 119.25 C-59.30521335 108.9225791 -60.52227345 97.56089859 -59 85.25 C-55.91222418 74.84386585 -49.94873077 69.27370629 -40.75 64.1875 C-26.91933427 57.64688961 -11.49671452 55.43835848 3.48046875 53.03686523 C13.11564379 51.57496709 13.11564379 51.57496709 21 46.25 C21.74298012 40.96274611 21.6553749 36.51555154 19.1875 31.75 C18.1046875 30.5125 18.1046875 30.5125 17 29.25 C16.319375 28.38375 16.319375 28.38375 15.625 27.5 C9.20101789 22.5584753 -0.36306687 23.64848682 -8 24.25 C-11.44774467 25.06438948 -14.06657382 26.28267226 -17 28.25 C-18.07701172 28.9615625 -18.07701172 28.9615625 -19.17578125 29.6875 C-25.04275776 34.14940535 -27.07918442 39.26176962 -29 46.25 C-35.36430174 44.93764148 -41.42121028 43.23780585 -47.5625 41.125 C-48.38041016 40.84785156 -49.19832031 40.57070313 -50.04101562 40.28515625 C-52.02876568 39.61094863 -54.01459349 38.93107796 -56 38.25 C-54.55846071 26.93308813 -47.30960733 17.22867454 -38.5 10.27734375 C-31.77497082 5.6734357 -24.85626014 3.2544779 -17 1.25 C-16.40243896 1.0742041 -15.80487793 0.8984082 -15.18920898 0.71728516 C-10.24056487 -0.33899954 -5.03857842 0.02164803 0 0 Z " fill="#FBFBFB" transform="translate(853,932.75)"/>
<path d="M0 0 C1.6406543 -0.01160156 1.6406543 -0.01160156 3.31445312 -0.0234375 C18.4659154 0.01305007 30.3412928 4.68332525 41.43359375 14.98828125 C56.21989553 30.36735237 56.5625 49.88526192 56.5625 70.25 C27.8525 70.25 -0.8575 70.25 -30.4375 70.25 C-28.24956883 86.6355267 -28.24956883 86.6355267 -19.125 99.75 C-17.92378444 100.62314163 -16.69369378 101.45799474 -15.4375 102.25 C-14.85097656 102.65992188 -14.26445313 103.06984375 -13.66015625 103.4921875 C-6.0293198 107.87425199 4.07171442 107.32495217 12.5625 106.25 C19.21221597 104.38744547 23.75963398 101.06614804 27.5625 95.25 C29.02860543 92.29843461 30.34458603 89.31179489 31.5625 86.25 C40.38891212 87.79407458 49.0530654 89.3657926 57.5625 92.25 C55.61892291 103.38139606 50.54690573 113.15867394 41.2421875 119.94140625 C28.83117494 127.70315235 17.88778276 129.44173273 3.4375 129.5 C1.55417969 129.5309375 1.55417969 129.5309375 -0.3671875 129.5625 C-16.97752639 129.63142257 -31.11832445 125.18140852 -43.25390625 113.53125 C-57.41208828 98.73987557 -59.91989245 81.14913566 -59.640625 61.44921875 C-59.06628041 42.69306212 -52.55953327 27.62350081 -39.4375 14.25 C-38.88320312 13.67121094 -38.32890625 13.09242188 -37.7578125 12.49609375 C-27.49757537 2.7207932 -13.62465703 -0.09600463 0 0 Z " fill="#FDFDFD" transform="translate(1621.4375,932.75)"/>
<path d="M0 0 C9.9 0 19.8 0 30 0 C30 31.02 30 62.04 30 94 C40.22627286 87.09447091 40.22627286 87.09447091 49.375 79.375 C49.86991943 78.90610352 50.36483887 78.43720703 50.87475586 77.95410156 C52.25526116 76.6417498 53.62797206 75.32121209 55 74 C55.94939453 73.14535156 55.94939453 73.14535156 56.91796875 72.2734375 C65.14836984 64.64907545 71.47945642 54.66095127 77 45 C88.22 45 99.44 45 111 45 C102.80285709 69.59142873 84.12465421 85.0869763 61.8046875 96.65625 C57.19926899 98.86274578 53.10854283 100 48 100 C48 100.99 48 101.98 48 103 C49.16015625 102.95359375 50.3203125 102.9071875 51.515625 102.859375 C66.47040117 102.43571786 77.46640752 104.76772475 89 115 C100.4951278 126.47456407 106.19753899 143.14101983 112 158 C112.28536621 158.71671875 112.57073242 159.4334375 112.86474609 160.171875 C114.06328983 163.24643073 115 165.67009597 115 169 C104.11 169 93.22 169 82 169 C80.845 165.679375 79.69 162.35875 78.5 158.9375 C71.02088997 137.51187824 71.02088997 137.51187824 55.671875 121.60546875 C47.28715793 117.67686787 39.44643718 117.67474551 30 117 C30 134.16 30 151.32 30 169 C20.1 169 10.2 169 0 169 C0 113.23 0 57.46 0 0 Z " fill="#FAFAFA" transform="translate(1373,891)"/>
<path d="M0 0 C0.91265625 -0.020625 1.8253125 -0.04125 2.765625 -0.0625 C13.80904292 -0.12542546 22.29298011 3.44502412 30.5625 10.73828125 C44.02013338 24.86178712 44.3358225 45.42425125 44.16796875 63.65234375 C44.16235765 65.46936183 44.15809473 67.28638453 44.15510559 69.10340881 C44.14377582 73.83308958 44.11441427 78.56248387 44.08099365 83.29205322 C44.05003341 88.13932421 44.03654539 92.98664253 44.02148438 97.83398438 C43.98953032 107.30613423 43.93686289 116.77799823 43.875 126.25 C33.975 126.25 24.075 126.25 13.875 126.25 C13.845271 123.02718262 13.845271 123.02718262 13.81494141 119.73925781 C13.74769491 112.59863547 13.67006287 105.45815232 13.58747292 98.3176918 C13.53776711 93.9932392 13.49143734 89.66880803 13.453125 85.34423828 C13.41594414 81.16197746 13.36950081 76.97990816 13.31693649 72.79781342 C13.29856508 71.21126453 13.28339528 69.62467487 13.27165604 68.03806305 C13.37864967 49.14565383 13.37864967 49.14565383 5.875 32.25 C1.08516218 27.57990813 -3.6813806 25.94384515 -10.3125 25.75 C-18.17702853 25.89234441 -23.35393028 28.51215556 -28.8984375 34.0078125 C-38.974873 46.23252359 -40.41584367 61.40405003 -40.5390625 76.56640625 C-40.55780551 78.03329011 -40.57738118 79.50016354 -40.5977478 80.96702576 C-40.64874457 84.79897878 -40.68854231 88.63096663 -40.72589111 92.46307373 C-40.77323113 97.07638841 -40.83468783 101.68953468 -40.89373779 106.30271149 C-40.98155367 113.28507178 -41.05160067 120.26740632 -41.125 127.25 C-51.025 127.25 -60.925 127.25 -71.125 127.25 C-71.125 86.33 -71.125 45.41 -71.125 3.25 C-62.875 3.25 -54.625 3.25 -46.125 3.25 C-45.97693622 29.60535308 -45.97693622 29.60535308 -47.125 41.25 C-45.475 41.25 -43.825 41.25 -42.125 41.25 C-42.06183594 40.61835937 -41.99867187 39.98671875 -41.93359375 39.3359375 C-40.29848797 27.39105951 -34.5841695 15.02116956 -25.125 7.25 C-16.58167471 2.11965708 -9.82182773 0.05411475 0 0 Z " fill="#FCFCFC" transform="translate(1300.125,932.75)"/>
<path d="M0 0 C9.9 0 19.8 0 30 0 C30.01981934 2.18407471 30.03963867 4.36814941 30.06005859 6.6184082 C30.12725465 13.87079552 30.20488819 21.12304485 30.28752708 28.3752718 C30.33726826 32.76813471 30.38359844 37.16097612 30.421875 41.55395508 C30.45901026 45.80104896 30.50544283 50.04795258 30.55806351 54.29488182 C30.57645865 55.90737729 30.59162019 57.51991331 30.60334396 59.13247108 C30.54231757 79.94419159 30.54231757 79.94419159 40.5 97.5 C46.01745704 100.81047422 50.59909645 101.84167725 57 101 C65.37402418 98.48507391 70.39106819 93.63811191 74.8046875 86.2265625 C81.35284717 74.02901017 82.29682197 61.78447588 82.4140625 48.14453125 C82.43281974 46.74776627 82.45239635 45.35101207 82.4727478 43.95426941 C82.52359483 40.31633938 82.56347088 36.6783728 82.60089111 33.0402832 C82.64123207 29.31257475 82.69208471 25.58500979 82.7421875 21.85742188 C82.83935782 14.57167223 82.91925666 7.28602395 83 0 C92.9 0 102.8 0 113 0 C113 40.92 113 81.84 113 124 C104.75 124 96.5 124 88 124 C88 111.13 88 98.26 88 85 C86.68 85 85.36 85 84 85 C83.9071875 86.3303125 83.9071875 86.3303125 83.8125 87.6875 C81.888643 100.73283174 74.99851862 113.59694981 64.50390625 121.5625 C57.16090134 125.77814088 50.95916834 126.49749729 42.625 126.4375 C41.64789062 126.45748047 40.67078125 126.47746094 39.6640625 126.49804688 C28.7478889 126.49078878 21.10423765 123.00229194 13.26171875 115.4921875 C-0.45022808 100.38299565 -0.31608612 80.36440608 -0.1953125 61.1328125 C-0.19157235 59.35920371 -0.18873013 57.58559282 -0.18673706 55.8119812 C-0.17917937 51.19250567 -0.15960058 46.57316024 -0.1373291 41.95373535 C-0.1166991 37.22047687 -0.10769903 32.48719693 -0.09765625 27.75390625 C-0.0763455 18.50253844 -0.04122966 9.2513005 0 0 Z " fill="#FCFCFC" transform="translate(1085,936)"/>
<path d="M0 0 C6.99012917 6.5080513 11.18431023 13.46650157 12.50390625 22.96484375 C9.84072037 23.95445941 7.17397318 24.93161226 4.50390625 25.90234375 C3.38822266 26.3190332 3.38822266 26.3190332 2.25 26.74414062 C-2.70086218 28.53075611 -7.25118226 29.49399374 -12.49609375 29.96484375 C-12.90859375 28.74796875 -13.32109375 27.53109375 -13.74609375 26.27734375 C-16.52685735 19.06513497 -20.21074817 16.27912607 -27.05859375 12.98046875 C-35.02087986 9.66284954 -47.00639374 9.34767663 -55.24609375 12.15234375 C-58.88604591 14.18231707 -61.13539569 15.49756848 -63.49609375 18.96484375 C-64.31474181 23.42756238 -64.44482579 27.39737342 -62.05859375 31.33984375 C-54.6127252 36.06161405 -46.73236337 38.03319405 -38.18359375 39.83984375 C1.71349577 48.7306782 1.71349577 48.7306782 12.1640625 62.65625 C16.78764384 70.62282893 16.74966218 80.27400414 14.81640625 89.10546875 C11.09671987 100.20253311 4.87464106 106.68099851 -5.49609375 111.96484375 C-15.91176656 116.13739178 -25.58568276 117.7770452 -36.77783203 117.61669922 C-38.99685136 117.58983458 -41.21081743 117.61664853 -43.4296875 117.6484375 C-59.16615922 117.68600897 -74.50461304 113.57354812 -86.30859375 102.65234375 C-92.19534945 96.33417097 -94.65787481 90.44512256 -95.49609375 81.96484375 C-92.0617116 80.62337881 -88.62310958 79.2930847 -85.18359375 77.96484375 C-84.20712891 77.58328125 -83.23066406 77.20171875 -82.22460938 76.80859375 C-81.28681641 76.44765625 -80.34902344 76.08671875 -79.3828125 75.71484375 C-78.08670044 75.21210937 -78.08670044 75.21210937 -76.7644043 74.69921875 C-74.49609375 73.96484375 -74.49609375 73.96484375 -71.49609375 73.96484375 C-71.30015625 74.61710938 -71.10421875 75.269375 -70.90234375 75.94140625 C-68.5686313 82.76147972 -65.89833228 86.5548331 -59.49609375 89.96484375 C-47.46059624 95.13746028 -33.54982684 95.60017768 -21.0078125 92 C-16.93234107 90.32037336 -15.56990071 88.89026407 -13.49609375 84.96484375 C-12.64861539 80.99957802 -12.90409411 77.93815644 -15.0546875 74.40234375 C-18.08749154 71.3743922 -21.11672873 70.25003363 -25.12109375 69.02734375 C-25.89308105 68.77847412 -26.66506836 68.52960449 -27.46044922 68.27319336 C-34.42319439 66.11269249 -41.50334155 64.58013948 -48.62109375 63.02734375 C-63.55982194 59.72032999 -77.05236382 55.88009727 -87.49609375 43.96484375 C-88.34494141 43.03865234 -88.34494141 43.03865234 -89.2109375 42.09375 C-94.59705878 34.67850823 -93.58226766 23.64859744 -92.49609375 14.96484375 C-91.4538968 11.00162691 -90.02091185 8.17488143 -87.49609375 4.96484375 C-86.93792969 4.25328125 -86.37976563 3.54171875 -85.8046875 2.80859375 C-66.31586807 -18.9993545 -21.63713686 -17.64154665 0 0 Z " fill="#FCFCFC" transform="translate(672.49609375,945.03515625)"/>
<path d="M0 0 C19.18800321 14.16332152 26.98170114 40.89565441 34 62.5 C34.60720691 64.34821405 35.21487794 66.19627568 35.82299805 68.04418945 C37.56632515 73.35714048 39.28864182 78.67667282 41 84 C41.23817444 84.7407074 41.47634888 85.48141479 41.72174072 86.24456787 C43.10410306 90.55309501 44.4666062 94.86740987 45.8125 99.1875 C46.13154297 100.20585938 46.45058594 101.22421875 46.77929688 102.2734375 C48.28109582 107.18903224 49.45533674 111.88582417 50 117 C26.45330336 135.24374311 -1.53444528 145.72655302 -29.375 155.5625 C-41.61891942 159.88994484 -53.35606762 164.52348397 -64.77001953 170.78076172 C-67.16521849 172.09033295 -69.57772089 173.36267174 -71.99609375 174.62890625 C-75.2300951 176.32263851 -78.46266207 178.01892019 -81.69140625 179.72265625 C-82.42246582 180.10824707 -83.15352539 180.49383789 -83.90673828 180.89111328 C-85.24829737 181.60179224 -86.58799901 182.31599541 -87.92529297 183.03466797 C-89.59050924 183.92929576 -91.26371158 184.80901468 -92.9375 185.6875 C-93.83339844 186.16574219 -94.72929687 186.64398437 -95.65234375 187.13671875 C-98.41362566 188.15209862 -99.31853441 188.14548045 -102 187 C-103.79006442 185.91782469 -105.53895795 184.76573279 -107.25 183.5625 C-108.14203125 182.94503906 -109.0340625 182.32757812 -109.953125 181.69140625 C-110.62859375 181.13324219 -111.3040625 180.57507812 -112 180 C-112 179.34 -112 178.68 -112 178 C-105.07 174.04 -98.14 170.08 -91 166 C-91 165.01 -91 164.02 -91 163 C-93.64 161.68 -96.28 160.36 -99 159 C-95.17800323 157.08900162 -92.18500658 156.27377599 -88.03125 155.4140625 C-86.6406144 155.11984179 -85.24998976 154.8255692 -83.859375 154.53125 C-81.69249233 154.07957275 -79.52515516 153.63019384 -77.35742188 153.18261719 C-63.34061333 150.2748064 -51.23293115 146.60858675 -38.875 139.1875 C-37.17297452 138.1853671 -35.47093784 137.18325268 -33.76826477 136.18222046 C-32.01230109 135.14808571 -30.25917833 134.10925873 -28.50634766 133.06982422 C-22.88830461 129.74501117 -17.22210328 126.50334931 -11.5625 123.25 C-9.42030479 122.0147878 -7.27837241 120.77911967 -5.13671875 119.54296875 C-4.11239746 118.95177246 -3.08807617 118.36057617 -2.03271484 117.75146484 C5.31543422 113.50773425 12.65820132 109.25470502 20 105 C19.56834839 100.12593392 17.14960116 97.37836454 14 93.875 C12.99130473 92.72082299 11.98350506 91.5658627 10.9765625 90.41015625 C10.47286133 89.83668457 9.96916016 89.26321289 9.45019531 88.67236328 C7.36472652 86.26740348 5.37113018 83.79179244 3.375 81.3125 C-2.44421088 74.18060744 -8.5161244 67.40890962 -15.125 61 C-21.9081968 54.28000068 -27.19231688 46.76341141 -31 38 C-31.4125 37.05125 -31.825 36.1025 -32.25 35.125 C-33.88843165 28.29820146 -33.90263103 22.03117785 -30.30078125 15.8671875 C-24.39176474 7.38517582 -10.87906154 -3.08240077 0 0 Z " fill="#020100" transform="translate(488,854)"/>
<path d="M0 0 C5.61 0 11.22 0 17 0 C17 9.24 17 18.48 17 28 C27.89 28 38.78 28 50 28 C50 36.25 50 44.5 50 53 C39.44 53 28.88 53 18 53 C18.03265014 64.40654472 18.03265014 64.40654472 18.11132812 75.8125 C18.15364315 80.4671839 18.19065791 85.12147392 18.19555664 89.77636719 C18.19984688 93.53093303 18.22836764 97.28461605 18.27343178 101.0389061 C18.28638397 102.46851324 18.29072248 103.89822616 18.28615379 105.32788467 C17.92855163 114.11946258 17.92855163 114.11946258 21.4074707 121.83935547 C26.25101098 125.87601913 30.19067446 126.3763444 36.36328125 126.265625 C40.50008658 125.84888017 44.15466285 124.5176893 48 123 C48.99 122.67 49.98 122.34 51 122 C51 131.57 51 141.14 51 151 C34.61193029 154.51172922 34.61193029 154.51172922 26.75 154.375 C25.46778564 154.36194824 25.46778564 154.36194824 24.15966797 154.34863281 C13.22356571 154.09396504 5.11588201 151.45659553 -2.625 143.4375 C-9.4647801 135.34174258 -11.13187506 125.11378324 -11.11352539 114.80126953 C-11.11367142 114.10788986 -11.11381744 113.41451019 -11.1139679 112.70011902 C-11.11327596 110.42765074 -11.1055175 108.15526631 -11.09765625 105.8828125 C-11.09578951 104.29955083 -11.09436682 102.71628858 -11.09336853 101.13302612 C-11.08956349 96.98037094 -11.07975051 92.82775114 -11.06866455 88.67510986 C-11.05840703 84.43184894 -11.05386163 80.18858227 -11.04882812 75.9453125 C-11.03812632 67.63019035 -11.02054595 59.31510366 -11 51 C-16.94 51 -22.88 51 -29 51 C-29 43.41 -29 35.82 -29 28 C-20.375 27.6875 -20.375 27.6875 -17.69287109 27.61206055 C-12.85391762 27.3882467 -9.03848766 26.93196705 -5 24 C-3.69969886 21.23438195 -3.69969886 21.23438195 -3.25 18 C-3.03214844 16.85144531 -2.81429687 15.70289063 -2.58984375 14.51953125 C-2.39519531 13.35808594 -2.20054687 12.19664062 -2 11 C-1.79503906 9.91074219 -1.59007812 8.82148437 -1.37890625 7.69921875 C-0.8970171 5.13689781 -0.44528215 2.56893549 0 0 Z " fill="#FCFCFC" transform="translate(727,908)"/>
<path d="M0 0 C5.61 0 11.22 0 17 0 C17 9.24 17 18.48 17 28 C27.89 28 38.78 28 50 28 C50 35.92 50 43.84 50 52 C39.11 52 28.22 52 17 52 C17.06768153 59.95608065 17.13815974 67.91127305 17.2355423 75.86690521 C17.28009599 79.5721376 17.31955281 83.2772597 17.34643555 86.98266602 C17.37255719 90.55552792 17.4130207 94.12797253 17.46318626 97.70057487 C17.47979545 99.05957767 17.49134664 100.41865255 17.49761391 101.77774239 C17.45542352 111.82200844 17.45542352 111.82200844 21 121 C25.86506595 125.62181265 29.8184703 126.27786625 36.29296875 126.23046875 C40.47327075 125.87457002 44.12292455 124.53021587 48 123 C48.99 122.67 49.98 122.34 51 122 C51 131.57 51 141.14 51 151 C42.60419996 153.09895001 36.22565901 154.48221246 27.875 154.375 C26.96363281 154.38660156 26.05226563 154.39820313 25.11328125 154.41015625 C14.1716573 154.36346369 5.29698736 151.47952395 -2.5625 143.6875 C-11.30226341 132.9904 -11.71586119 119.69239761 -11.48828125 106.56640625 C-11.47892525 104.95117808 -11.47182238 103.33593546 -11.46684265 101.72068787 C-11.44799133 97.52337633 -11.39908799 93.32696653 -11.34332275 89.13000488 C-11.29165013 84.82572621 -11.26922746 80.52129805 -11.24414062 76.21679688 C-11.1909404 67.81074331 -11.10319255 59.4055886 -11 51 C-16.94 51 -22.88 51 -29 51 C-29 43.41 -29 35.82 -29 28 C-20.3125 27.625 -20.3125 27.625 -17.6027832 27.52197266 C-11.47490843 27.35990938 -11.47490843 27.35990938 -6 25 C-3.37135446 19.51413105 -2.26083288 13.97479257 -1.3125 8 C-0.879375 5.36 -0.44625 2.72 0 0 Z " fill="#FEFEFE" transform="translate(951,908)"/>
<path d="M0 0 C1.86425516 1.36971355 3.67263924 2.81689678 5.4375 4.3125 C6.36433594 5.09238281 7.29117188 5.87226562 8.24609375 6.67578125 C9.15488281 7.44277344 10.06367188 8.20976563 11 9 C12.31218506 9.88594849 12.31218506 9.88594849 13.65087891 10.78979492 C16 13 16 13 16.50756836 15.63671875 C16.45221924 16.64347656 16.39687012 17.65023438 16.33984375 18.6875 C16.26334595 20.42362549 16.26334595 20.42362549 16.18530273 22.19482422 C16.06264038 24.07838623 16.06264038 24.07838623 15.9375 26 C15.87312744 27.29824707 15.80875488 28.59649414 15.74243164 29.93408203 C15.56420738 33.51445571 15.35333176 37.09227363 15.13720703 40.67053223 C14.89534992 44.77672374 14.68428603 48.8845457 14.46875 52.9921875 C14.00894544 61.66327131 13.51397743 70.33196149 13 79 C9.02198459 80.12909751 5.04238852 81.25252445 1.0625 82.375 C-0.05447266 82.69210937 -1.17144531 83.00921875 -2.32226562 83.3359375 C-28.74920161 90.77577872 -28.74920161 90.77577872 -38.68359375 86.97265625 C-49.219887 80.38062529 -55.66621705 69.34392956 -62 59 C-62.60199219 58.20078125 -63.20398438 57.4015625 -63.82421875 56.578125 C-66.71968112 50.22927063 -62.99763476 41.63712562 -61.1875 35.25 C-60.8152832 33.85201172 -60.8152832 33.85201172 -60.43554688 32.42578125 C-60.18224609 31.52730469 -59.92894531 30.62882812 -59.66796875 29.703125 C-59.44391357 28.89520508 -59.2198584 28.08728516 -58.98901367 27.25488281 C-56.74264214 22.13331098 -52.56608667 20.01971276 -47.75 17.57421875 C-47.14328461 17.26535233 -46.53656921 16.9564859 -45.91146851 16.63825989 C-43.94615658 15.64393896 -41.97412539 14.66419458 -40 13.6875 C-38.99589081 13.18718262 -38.99589081 13.18718262 -37.97149658 12.67675781 C-29.59706347 8.51823885 -21.20862263 4.60336457 -12.375 1.5 C-11.57191406 1.21600342 -10.76882813 0.93200684 -9.94140625 0.6394043 C-6.21817907 -0.58441917 -3.7192471 -1.30335805 0 0 Z " fill="#010000" transform="translate(471,1013)"/>
<path d="M0 0 C9.9 0 19.8 0 30 0 C30.09060329 17.19511002 30.16415716 34.39001349 30.20724869 51.58529663 C30.2277965 59.5709493 30.25576643 67.55644216 30.30175781 75.54199219 C30.34186587 82.50938535 30.36748922 89.47666267 30.37635398 96.44416809 C30.3815286 100.12694662 30.39352404 103.80939399 30.42292023 107.49206543 C30.72915652 147.43840892 30.72915652 147.43840892 18.1875 160.953125 C8.35400607 170.39010708 -3.17064135 171.10239306 -16.14453125 171.1328125 C-19 171 -19 171 -22 170 C-22.71961582 161.31320899 -23.14368684 152.71700174 -23 144 C-21.80503906 143.94392578 -21.80503906 143.94392578 -20.5859375 143.88671875 C-12.27648446 143.56313613 -12.27648446 143.56313613 -5 140 C-0.5435133 133.0552687 -0.42023961 127.08968182 -0.45410156 118.97460938 C-0.44376389 117.68596985 -0.43342621 116.39733032 -0.42277527 115.06964111 C-0.3950456 111.55774364 -0.39150766 108.04619931 -0.39249516 104.5342083 C-0.38935474 100.85593743 -0.36371321 97.17782299 -0.34051514 93.49963379 C-0.30003758 86.54420624 -0.27963392 79.58887226 -0.26654124 72.63334513 C-0.25064315 64.71061484 -0.2122158 56.78804314 -0.17194796 48.86540508 C-0.08966184 32.57695967 -0.03847287 16.28861678 0 0 Z " fill="#FBFBFB" transform="translate(1026,935)"/>
<path d="M0 0 C9.84626565 2.17956172 9.84626565 2.17956172 13.125 6 C15 9 15 9 15 12 C15.58426758 12.27634277 16.16853516 12.55268555 16.77050781 12.83740234 C18.90537054 13.95065424 20.74032676 15.1695526 22.671875 16.6015625 C23.33574219 17.09140625 23.99960937 17.58125 24.68359375 18.0859375 C25.36550781 18.59382813 26.04742187 19.10171875 26.75 19.625 C27.44738281 20.140625 28.14476562 20.65625 28.86328125 21.1875 C30.57755267 22.45559119 32.28905156 23.7274289 34 25 C32.58853677 28.36888702 31.01355624 30.03031096 28.078125 32.171875 C27.29953125 32.75453125 26.5209375 33.3371875 25.71875 33.9375 C24.09052082 35.13290877 22.46035112 36.32567951 20.828125 37.515625 C13.98291807 42.64953019 8.50620996 48.12873267 5.8125 56.4375 C5.32910156 57.84902344 5.32910156 57.84902344 4.8359375 59.2890625 C4.33440078 60.91554139 3.86868187 62.55467211 3.4765625 64.2109375 C1.54740879 71.7318411 -3.53192778 77.13423362 -8.36279297 82.99316406 C-11.26414764 86.54955168 -14.06346477 90.18501471 -16.875 93.8125 C-17.75248901 94.93591797 -17.75248901 94.93591797 -18.64770508 96.08203125 C-21.6716083 99.95978631 -24.65198713 103.8623638 -27.5703125 107.8203125 C-28.14668457 108.59528076 -28.72305664 109.37024902 -29.31689453 110.16870117 C-30.40877424 111.64053728 -31.49111393 113.11951739 -32.56201172 114.60668945 C-35.59901752 118.68386726 -38.05840888 121.24738235 -43 123 C-46.03232858 123.3477441 -48.95740383 123.13829983 -52 123 C-50.5628641 115.3295158 -48.70443058 107.85883151 -46.5690918 100.35571289 C-45.04906552 94.97489878 -43.6727579 89.60770561 -42.49609375 84.140625 C-38.94079717 68.45865218 -33.64075745 57.12608662 -24.51538086 44.14916992 C-15.57598832 31.38528797 -8.92871324 17.65053892 -2.28076172 3.59082031 C-1 1 -1 1 0 0 Z " fill="#020100" transform="translate(352,1023)"/>
<path d="M0 0 C9.57 0 19.14 0 29 0 C29 40.59 29 81.18 29 123 C19.43 123 9.86 123 0 123 C0 82.41 0 41.82 0 0 Z " fill="#FFFFFF" transform="translate(1508,936)"/>
<path d="M0 0 C7.45888149 4.67386474 11.37878202 11.12072106 14.11328125 19.32421875 C15.11046686 28.0863743 13.24023072 35.74287418 8.265625 43.03125 C1.79442776 50.86480455 -7.08572905 56.57483234 -17.3671875 57.5625 C-24.17286374 57.74909141 -28.99154477 56.72957493 -34.88671875 53.32421875 C-35.84578125 52.78087891 -35.84578125 52.78087891 -36.82421875 52.2265625 C-42.75724956 48.45448472 -45.76670353 43.310926 -48.19921875 36.82421875 C-49.84997023 28.42039305 -48.97260354 20.59827638 -44.59765625 13.12109375 C-34.21970569 -1.41913645 -16.92888309 -8.10879274 0 0 Z " fill="#020100" transform="translate(454.88671875,800.67578125)"/>
<path d="M0 0 C3.44779086 1.50006391 5.82360533 3.50409262 8.5625 6.0625 C19.32334683 15.90954139 30.80756034 24.98576714 43 33 C35.3314396 41.36782122 24.2227844 43.48737887 13.5625 45.5625 C11.43560498 45.99733746 9.31011975 46.43864489 7.18466187 46.88044739 C5.77932568 47.17227164 4.3735855 47.46215747 2.96743774 47.75004578 C-3.06321217 48.98973952 -9.0359389 50.41245597 -15 51.9375 C-16.24414673 52.25473022 -16.24414673 52.25473022 -17.51342773 52.57836914 C-19.34338196 53.0479928 -21.17190234 53.52320049 -23 54 C-23 55.32 -23 56.64 -23 58 C-18.05 59.98 -18.05 59.98 -13 62 C-16.47502547 66.07937773 -21.00964574 69.07590214 -26 71 C-29.28617374 70.66653218 -30.07414022 69.93292075 -32.625 67.625 C-36.48854629 64.18963023 -41.07002925 63.1983921 -46 62 C-44.47047998 57.22249923 -41.77936278 53.97682866 -38.625 50.1875 C-34.27125258 44.85730975 -30.03944259 39.46392437 -25.9375 33.9375 C-21.69655644 28.23339983 -17.36912491 22.61126076 -12.95751953 17.03833008 C-8.53256845 11.4370133 -4.25256094 5.73308215 0 0 Z " fill="#030100" transform="translate(400,956)"/>
<path d="M0 0 C2.59973915 2.49574958 4.94009252 5.11579701 7.25 7.875 C14.03701679 15.69831398 20.75147739 19.97514774 31 21 C22.47882409 39.77391362 2.40063435 48.6353974 -15.58642578 55.64697266 C-18.72270949 56.89009126 -21.79755989 58.215683 -24.87109375 59.60546875 C-26.17240234 60.18808472 -26.17240234 60.18808472 -27.5 60.7824707 C-29.06651879 61.48461129 -30.63055751 62.19232605 -32.19140625 62.90698242 C-36.52765604 64.77313299 -39.44742936 65.42562035 -44 64 C-47.09536848 61.23045978 -47.91076034 59.62467765 -48.5 55.5 C-47.65236263 49.56653841 -43.68379704 46.54727064 -39.125 43 C-33.85681294 38.79673429 -28.95179602 34.30670686 -24.12353516 29.60546875 C-21.19625583 26.81284599 -18.47802107 24.64921006 -14.9140625 22.71875 C-9.91403969 19.72751989 -7.985272 15.38827956 -5.5625 10.25 C-4.71047226 8.52562792 -3.85765114 6.80164755 -3.00390625 5.078125 C-2.64111572 4.31918945 -2.2783252 3.56025391 -1.90454102 2.77832031 C-1 1 -1 1 0 0 Z " fill="#030100" transform="translate(410,1086)"/>
<path d="M0 0 C0.66411276 10.60120732 0.98691922 18.35368747 -6 27 C-6.86625 28.3303125 -6.86625 28.3303125 -7.75 29.6875 C-15.74474969 37.90432607 -24.16732239 42.04686877 -35.5 42.5625 C-41.45008869 42.44385416 -45.0532417 41.66974716 -49.58203125 37.80078125 C-53.3652729 32.99616857 -53.55368525 27.8562371 -53.4375 21.9453125 C-52.87640594 18.16794711 -51.66585316 16.2435767 -49.09375 13.5 C-42.28322409 8.62081726 -35.20984599 6.91433697 -27.0625 5.375 C-24.99079504 4.96660401 -22.91917899 4.55775675 -20.84765625 4.1484375 C-19.36483154 3.85984863 -19.36483154 3.85984863 -17.85205078 3.56542969 C-12.11397184 2.42783417 -5.77627647 0 0 0 Z " fill="#030303" transform="translate(876,998)"/>
<path d="M0 0 C-1.3269894 3.42448877 -2.82400688 6.70264333 -4.4375 10 C-10.10684918 22.64853248 -10.50963137 35.20363058 -10.6875 48.8125 C-10.72075329 50.58400832 -10.75525001 52.35549375 -10.79101562 54.12695312 C-10.87498787 58.41784017 -10.94222062 62.70868362 -11 67 C-15.3106965 67.98722024 -19.62384292 68.96330458 -23.9375 69.9375 C-25.14986328 70.21529297 -26.36222656 70.49308594 -27.61132812 70.77929688 C-31.06765653 71.5567366 -34.52855004 72.29337332 -38 73 C-38.90057129 73.18973389 -39.80114258 73.37946777 -40.72900391 73.57495117 C-43.09765625 73.9765625 -43.09765625 73.9765625 -47 74 C-49.53125 72.12109375 -49.53125 72.12109375 -51.5 69.4375 C-55.4801488 64.44651976 -59.50542926 61.19542412 -65 58 C-61.31861309 54.76662863 -57.1877292 53.41943755 -52.65625 51.77734375 C-51.00059629 51.1509509 -49.34566916 50.52263483 -47.69140625 49.89257812 C-45.09697891 48.90942413 -42.5007283 47.93776209 -39.89013672 46.99829102 C-29.89908206 43.80039426 -29.89908206 43.80039426 -21.99487305 37.41674805 C-20.97304785 34.89380581 -20.39654375 32.68399 -20 30 C-19.61743587 28.64202501 -19.22397307 27.28699669 -18.8125 25.9375 C-18.12463285 23.08858356 -17.93240636 20.42271752 -17.8125 17.5 C-17.24848942 11.85989417 -14.14329146 8.63724059 -10 5 C-3.25242718 0 -3.25242718 0 0 0 Z " fill="#040200" transform="translate(401,846)"/>
<path d="M0 0 C6.4184038 3.87526267 9.49062436 10.03586955 12 17 C12.495 21.455 12.495 21.455 13 26 C-6.47 26 -25.94 26 -46 26 C-43.668238 14.34118999 -41.0041371 6.76286676 -31 0 C-20.3690704 -5.88093978 -10.79412695 -5.13275231 0 0 Z " fill="#030303" transform="translate(1638,960)"/>
<path d="M0 0 C4.44570513 2.30224016 7.23536056 4.7047676 9.8125 9 C11.28966002 15.04292736 11.58205931 20.65348937 8.4375 26.1875 C6.05429783 29.95889738 2.58546882 32.17068077 -1.5 33.8125 C-4.35907485 34.34373895 -7.09884248 34.37477887 -10 34.3125 C-10.72058594 34.32796875 -11.44117188 34.3434375 -12.18359375 34.359375 C-18.81967386 34.31137442 -23.13678314 32.11512156 -27.9375 27.4375 C-30.38890965 21.75022961 -30.26949114 15.91297028 -29.5 9.8125 C-27.41362341 4.68475813 -25.33964313 2.53479926 -20.5 -0.1875 C-14.2062859 -2.2854047 -6.29817876 -2.13150601 0 0 Z " fill="#FA821A" transform="translate(1722.5,1028.1875)"/>
<path d="M0 0 C3.28331708 1.85394197 4.385154 3.54816028 5.8125 7.0234375 C6.43294859 11.93652456 6.49447992 16.33643453 4.625 20.9609375 C1.70070014 24.28858906 -0.95994028 26.61425093 -5.1875 28.0234375 C-7.62198818 28.17046814 -10.0612477 28.24449089 -12.5 28.2734375 C-13.79550781 28.29921875 -15.09101562 28.325 -16.42578125 28.3515625 C-21.80295461 27.88252557 -24.99384508 26.03544928 -29.0625 22.5859375 C-32.00639011 18.75025007 -31.93997633 14.62434757 -31.7421875 9.94140625 C-30.8922104 5.47004783 -28.84886473 2.67613993 -25.1875 0.0234375 C-17.70331417 -3.72496586 -7.66830878 -3.07296198 0 0 Z " fill="#FBFBFB" transform="translate(1535.1875,887.9765625)"/>
<path d="M0 0 C3.28331708 1.85394197 4.385154 3.54816028 5.8125 7.0234375 C6.43294859 11.93652456 6.49447992 16.33643453 4.625 20.9609375 C1.70070014 24.28858906 -0.95994028 26.61425093 -5.1875 28.0234375 C-7.62198818 28.17046814 -10.0612477 28.24449089 -12.5 28.2734375 C-13.79550781 28.29921875 -15.09101562 28.325 -16.42578125 28.3515625 C-21.68563962 27.89275865 -24.92320574 26.3902421 -28.5 22.5234375 C-31.40782904 18.21554262 -31.71680947 14.09518465 -31.1875 9.0234375 C-29.47021412 4.32349721 -27.32143334 1.81384251 -23.1875 -0.9765625 C-15.99936065 -3.37260895 -7.02411794 -2.81481197 0 0 Z " fill="#FBFBFB" transform="translate(1053.1875,887.9765625)"/>
<path d="M0 0 C4.08232538 12.63887939 2.95503123 26.08993755 -3 38 C-12.26285043 38.44820244 -19.85106704 36.50335769 -28 32 C-26.68493624 27.07034757 -24.51268496 23.71065557 -21.1875 19.9375 C-20.47412476 19.11245972 -20.47412476 19.11245972 -19.74633789 18.27075195 C-15.94958022 13.94184739 -11.98458069 9.78224012 -7.9375 5.6875 C-7.37764404 5.11829834 -6.81778809 4.54909668 -6.2409668 3.96264648 C-2.24639814 0 -2.24639814 0 0 0 Z " fill="#050200" transform="translate(316,935)"/>
<path d="M0 0 C0.66 0.33 1.32 0.66 2 1 C0.16994917 2.8575016 -1.66392011 4.71097232 -3.5 6.5625 C-4.0053125 7.07619141 -4.510625 7.58988281 -5.03125 8.11914062 C-7.87628219 10.98195427 -10.78359421 13.71127223 -13.84375 16.34375 C-18.44868941 20.32671354 -22.72082201 24.61011637 -27 28.9375 C-27.77472656 29.71673828 -28.54945313 30.49597656 -29.34765625 31.29882812 C-31.23410757 33.1969242 -33.11816245 35.09733149 -35 37 C-36.32 36.34 -37.64 35.68 -39 35 C-39 24.44 -39 13.88 -39 3 C-34 4 -34 4 -30.9375 5.0625 C-21.28781775 7.79866531 -12.0315381 5.87267831 -3 2 C-2.01 1.34 -1.02 0.68 0 0 Z " fill="#050200" transform="translate(456,857)"/>
<path d="M0 0 C-1.33679174 2.99324222 -2.78550581 5.0005826 -5.16015625 7.25 C-6.09782837 8.15480103 -6.09782837 8.15480103 -7.05444336 9.07788086 C-7.71710205 9.71218018 -8.37976074 10.34647949 -9.0625 11 C-15.45874792 17.23682077 -20.94047594 23.63695279 -26 31 C-31.64199696 28.65917148 -33.59213638 23.68164499 -36.3125 18.5 C-37.29433886 14.92967688 -37.12533294 11.69732169 -37 8 C-10.88402221 -3.6280074 -10.88402221 -3.6280074 0 0 Z " fill="#060300" transform="translate(309,930)"/>
<path d="M0 0 C7.43831743 1.35535502 11.61927293 8.59738244 15.6875 14.4375 C21.97667945 23.70082712 21.97667945 23.70082712 24 29 C22.04177135 34.67776909 16.55117164 37.75496713 11.390625 40.2734375 C7.2927693 41.98289801 4.50199752 43 0 43 C0.46724592 39.80715288 1.04996249 36.84111546 2.01953125 33.7578125 C4.94097875 22.56087027 2.88157153 10.97741534 0 0 Z " fill="#050200" transform="translate(321,929)"/>
<path d="M0 0 C8.4673812 2.31331068 16.94840174 5.49330717 23.98828125 10.81640625 C23.98828125 11.47640625 23.98828125 12.13640625 23.98828125 12.81640625 C23.17230469 12.65914062 22.35632813 12.501875 21.515625 12.33984375 C8.30153304 10.3789486 -2.65917769 11.9738291 -15.01171875 16.81640625 C-16.33741197 17.17893401 -17.66785787 17.52843606 -19.01171875 17.81640625 C-17.68430772 13.17046765 -15.91158646 9.68289654 -13.01171875 5.81640625 C-12.60179687 5.24019531 -12.191875 4.66398438 -11.76953125 4.0703125 C-8.22305552 -0.26760838 -5.46115383 -0.91986051 0 0 Z " fill="#0B0601" transform="translate(292.01171875,913.18359375)"/>
<path d="M0 0 C4.16916148 0.63426946 7.52200237 2.05011372 11.3125 3.875 C16.1517164 6.16262957 20.95462354 8.2192789 26 10 C26.31461385 17.09629025 26.44572039 22.68284595 23 29 C20.3708113 26.61410936 18.73979106 24.0466247 16.9375 21 C12.48136802 13.86448802 7.05441203 6.70294136 0 2 C0 1.34 0 0.68 0 0 Z " fill="#090400" transform="translate(327,923)"/>
<path d="M0 0 C2.82472496 -0.29868693 4.79768456 -0.3555568 7.5234375 0.4765625 C9.59994743 2.84413136 10.90110656 5.16529283 12.26953125 7.99609375 C13.46494041 10.36084396 14.65263028 11.66029776 16.5234375 13.4765625 C16.5234375 14.1365625 16.5234375 14.7965625 16.5234375 15.4765625 C12.68781921 13.99203616 8.98839252 12.30232013 5.2734375 10.5390625 C0.09262558 8.12842305 -5.01478086 6.14286876 -10.4765625 4.4765625 C-9.4765625 2.4765625 -9.4765625 2.4765625 -6.5390625 1.3515625 C-4.37121769 0.82521335 -2.19065886 0.42154634 0 0 Z " fill="#110901" transform="translate(305.4765625,904.5234375)"/>
<path d="M0 0 C3.2635082 0.88202924 4.78154115 1.73221174 6.9375 4.375 C8.51293273 9.75000577 7.51109986 14.65918143 6 20 C5.34 20.66 4.68 21.32 4 22 C3.52006844 19.45847565 3.04103273 16.91678778 2.5625 14.375 C2.42779297 13.66214844 2.29308594 12.94929688 2.15429688 12.21484375 C1.38981729 8.15004987 0.66330363 4.08285925 0 0 Z " fill="#140A02" transform="translate(347,1174)"/>
<path d="M0 0 C3.79549259 0.54581199 5.30979295 2.05409295 7.75 4.9375 C8.67039062 6.00291016 8.67039062 6.00291016 9.609375 7.08984375 C11 9 11 9 11 11 C7.14974121 10.39644592 4.13898841 9.23227397 0.6875 7.4375 C-0.19550781 6.98246094 -1.07851563 6.52742187 -1.98828125 6.05859375 C-2.65214844 5.70925781 -3.31601562 5.35992188 -4 5 C-2.68 3.35 -1.36 1.7 0 0 Z " fill="#120901" transform="translate(338,914)"/>
<path d="M0 0 C4.3177458 0.50797009 8.03302114 1.19682779 12 3 C11.3125 4.9375 11.3125 4.9375 10 7 C7.375 7.75 7.375 7.75 5 8 C0 2.25 0 2.25 0 0 Z " fill="#140A02" transform="translate(321,906)"/>
<path d="M0 0 C0 0.66 0 1.32 0 2 C1.0828125 2.433125 1.0828125 2.433125 2.1875 2.875 C4.79166667 3.91666667 7.39583333 4.95833333 10 6 C9.67 6.66 9.34 7.32 9 8 C3.65155992 7.46515599 -0.35796103 5.53309233 -5 3 C-2.25 0 -2.25 0 0 0 Z " fill="#1C0E03" transform="translate(286,1180)"/>
</svg>
